<svg width="960" height="720" viewBox="0 0 960 720" fill="none" xmlns="http://www.w3.org/2000/svg">
  <defs>
    <linearGradient id="bg" x1="0" y1="0" x2="1" y2="1">
      <stop offset="0" stop-color="#0B1220" />
      <stop offset="1" stop-color="#020617" />
    </linearGradient>
    <linearGradient id="pill" x1="0" y1="0" x2="1" y2="0">
      <stop offset="0" stop-color="#22D3EE" />
      <stop offset="1" stop-color="#0EA5E9" />
    </linearGradient>
    <radialGradient id="glow" cx="0.5" cy="0" r="1">
      <stop offset="0" stop-color="#22D3EE" stop-opacity="0.6" />
      <stop offset="1" stop-color="#22D3EE" stop-opacity="0" />
    </radialGradient>
  </defs>

  <rect width="960" height="720" rx="32" fill="url(#bg)" />

  <circle cx="120" cy="80" r="120" fill="url(#glow)" />
  <circle cx="840" cy="40" r="160" fill="url(#glow)" opacity="0.7" />
  <circle cx="760" cy="560" r="180" fill="url(#glow)" opacity="0.4" />

  <g transform="translate(80 160)">
    <rect x="40" y="40" width="760" height="420" rx="28" fill="#020617" />
    <rect
      x="40.5"
      y="40.5"
      width="759"
      height="419"
      rx="27.5"
      fill="url(#bg)"
      stroke="rgba(148,163,184,0.6)"
      stroke-width="1.5"
    />

    <rect x="80" y="84" width="180" height="36" rx="18" fill="rgba(15,23,42,0.92)" stroke="rgba(148,163,184,0.7)" />
    <circle cx="104" cy="102" r="10" fill="#22C55E" />
    <text x="124" y="107" fill="#E5E7EB" font-family="system-ui, -apple-system, BlinkMacSystemFont, 'Segoe UI', sans-serif" font-size="12">
      Check-in: On time
    </text>

    <rect x="80" y="136" width="260" height="32" rx="16" fill="rgba(15,23,42,0.9)" />
    <text x="96" y="157" fill="#CBD5F5" font-size="13" font-family="system-ui, -apple-system, BlinkMacSystemFont, 'Segoe UI', sans-serif">
      Cardiology · Outpatients · Dublin 8
    </text>

    <g transform="translate(80 196)">
      <rect x="0" y="0" width="300" height="120" rx="18" fill="rgba(15,23,42,0.96)" stroke="rgba(148,163,184,0.6)" />
      <text x="18" y="30" fill="#94A3B8" font-size="11" letter-spacing="0.16em" font-family="system-ui, -apple-system, BlinkMacSystemFont, 'Segoe UI', sans-serif">
        NEXT APPOINTMENT
      </text>
      <text x="18" y="56" fill="#E5E7EB" font-size="15" font-weight="600" font-family="system-ui, -apple-system, BlinkMacSystemFont, 'Segoe UI', sans-serif">
        Dr. Ní Bhraonáin
      </text>
      <text x="18" y="78" fill="#A5B4FC" font-size="12" font-family="system-ui, -apple-system, BlinkMacSystemFont, 'Segoe UI', sans-serif">
        Wednesday · 09:20 · St. James&apos;s Campus
      </text>
    </g>

    <g transform="translate(420 196)">
      <rect x="0" y="0" width="300" height="120" rx="18" fill="rgba(15,23,42,0.96)" stroke="rgba(148,163,184,0.6)" />
      <text x="18" y="30" fill="#94A3B8" font-size="11" letter-spacing="0.16em" font-family="system-ui, -apple-system, BlinkMacSystemFont, 'Segoe UI', sans-serif">
        WAITING ROOM
      </text>
      <rect x="18" y="46" width="120" height="8" rx="4" fill="#0F172A" />
      <rect x="18" y="46" width="80" height="8" rx="4" fill="#22D3EE" />
      <rect x="18" y="64" width="120" height="8" rx="4" fill="#0F172A" />
      <rect x="18" y="64" width="54" height="8" rx="4" fill="#4ADE80" />
      <text x="150" y="54" fill="#E5E7EB" font-size="11" font-family="system-ui, -apple-system, BlinkMacSystemFont, 'Segoe UI', sans-serif">
        Checked in · 26
      </text>
      <text x="150" y="72" fill="#E5E7EB" font-size="11" font-family="system-ui, -apple-system, BlinkMacSystemFont, 'Segoe UI', sans-serif">
        Average wait · 7 mins
      </text>
    </g>

    <g transform="translate(80 344)">
      <rect x="0" y="0" width="640" height="80" rx="18" fill="rgba(15,23,42,0.9)" stroke="rgba(148,163,184,0.4)" stroke-dasharray="4 6" />
      <circle cx="30" cy="40" r="10" fill="url(#pill)" />
      <text x="50" y="38" fill="#E5E7EB" font-size="13" font-family="system-ui, -apple-system, BlinkMacSystemFont, 'Segoe UI', sans-serif">
        Check in from your phone · skip the queue and get a gentle reminder 24 hours before.
      </text>
      <text x="50" y="58" fill="#9CA3AF" font-size="11" font-family="system-ui, -apple-system, BlinkMacSystemFont, 'Segoe UI', sans-serif">
        All data stays within EU regions · built on secure, audited infrastructure.
      </text>
    </g>
  </g>
</svg>


